<!--?xml version="1.0" standalone="no"?-->

<svg version="1.0" xmlns="http://www.w3.org/2000/svg" width="300.000000pt" height="300.000000pt" viewBox="0 0 300.000000 300.000000" preserveAspectRatio="xMidYMid meet">
<g transform="translate(0.000000,300.000000) scale(0.100000,-0.100000)" fill="#070707" stroke="none">
<path class="node" id="node1" d="M603 2595 c4 -5 38 -10 75 -12 38 -2 89 -7 113 -12 36 -7 21 -9 -76
-10 -66 -1 -147 -8 -180 -15 -65 -16 -81 -12 -51 10 15 10 16 14 5 14 -8 0
-24 -6 -35 -14 -19 -14 -19 -37 -22 -997 -2 -870 -1 -985 13 -1006 15 -23 16
-23 239 -23 272 0 256 -9 257 141 0 57 3 111 7 120 6 15 18 14 122 -12 204
-50 229 -41 239 87 6 72 8 77 45 108 55 46 47 69 -54 146 -90 68 -94 86 -22
95 125 16 124 15 136 95 10 63 19 70 92 70 128 0 137 65 32 235 -50 82 -61
107 -61 140 7 253 6 280 -16 345 -78 225 -281 397 -556 471 -71 20 -316 38
-302 24z"></path>
<path class="node" id="node2" d="M2319 2111 c-27 -22 -31 -4 40 -186 174 -446 117 -952 -152 -1348
-37 -54 -67 -105 -67 -113 0 -31 21 -54 49 -54 23 0 37 11 68 53 129 171 220
378 275 624 19 85 22 128 22 318 0 191 -3 233 -22 319 -28 124 -64 230 -109
321 -47 92 -61 101 -104 66z"></path>
<path class="node" id="node3" d="M2063 1973 c-21 -8 -15 -53 16 -130 95 -232 114 -481 57 -718 -36
-148 -78 -242 -168 -377 -66 -97 -71 -132 -23 -144 40 -10 52 0 115 97 180
279 245 607 184 928 -29 150 -77 293 -112 334 -15 16 -43 21 -69 10z"></path>
<path class="node" id="node4" d="M1802 1828 c-18 -18 -15 -61 12 -131 97 -257 66 -546 -84 -783 -47
-74 -49 -97 -14 -120 25 -17 26 -16 54 12 46 46 118 181 150 282 59 184 61
401 6 587 -35 119 -56 159 -86 163 -14 2 -31 -3 -38 -10z"></path>
</g>
<g transform="translate(0.000000,300.000000) scale(0.100000,-0.100000)" fill="#A1A1A1" stroke="none">

</g>
</svg>